<mxfile host="app.diagrams.net" agent="Mozilla/5.0 (Windows NT 10.0; Win64; x64) AppleWebKit/537.36 (KHTML, like Gecko) Chrome/140.0.0.0 Safari/537.36" version="28.0.7">
  <diagram name="Page-1" id="ColUqZWhuMGzV3N5CEdD">
    <mxGraphModel dx="1501" dy="818" grid="0" gridSize="10" guides="1" tooltips="1" connect="1" arrows="1" fold="1" page="1" pageScale="1" pageWidth="1169" pageHeight="827" math="0" shadow="0">
      <root>
        <mxCell id="0" />
        <mxCell id="1" parent="0" />
        <mxCell id="Otv1H664hoKUmCndlfrk-4" value="" style="shape=image;verticalLabelPosition=bottom;labelBackgroundColor=default;verticalAlign=top;aspect=fixed;imageAspect=0;image=data:image/jpeg,/9j/4AAQSkZJRgABAQAAAQABAAD/2wCEAAkGBwgHERUTBwgRFhUVFxYWGBcYFhoXFxchFRcZGBsYFxoZHioiGRoxHBsZJDEhMSkrLi86Fx8/ODMtNyotLisBCgoKDg0OGxAQGysmHSU3LS0vKzArLS82LS0tLS0tNy8vLy0rLS4tLS0tLy0tLS0vLS0tNS03LS0tLS0tLS0tLf/AABEIALgBEgMBEQACEQEDEQH/xAAbAAEAAgMBAQAAAAAAAAAAAAAABQYCAwQHAf/EAEEQAAEDAwIDBAcECAUFAQAAAAEAAgMEBREGEhMhMUFRYXEHIjJSgZGxFDOSoRUjNVNjc7LRQkNEgpNihMLS8DT/xAAaAQEAAgMBAAAAAAAAAAAAAAAAAwQCBQYB/8QANhEBAAIBAgQDBAkDBQEAAAAAAAECAwQRBRIhQTFhcUKhsdETIjIzNFGBkfAVI1IUQ8Hh8Qb/2gAMAwEAAhEDEQA/APcUBAQEBAQEBAQEBAQEBAQEBAQEBAQEBAQEBAQEBAQEBAQEBAQEBAQEBAQEBAQEBAQEBAQEBAQEBAQEBAQEBAQEBAQEBAQEBAQEBAQEBAQEBAQEBAQEBAQEBAQEBAQEBAQEBAQEBAQEBAQEBAQEBAQEBAQEBBXtQaytFifwppXSTkZEETTJJ5kD2R4nCwyZKY45rztDKtZtO0Qrk+rdWV37Ps9PTt7HTv4j/wAERwPxLV5eNaevSu9v55rdNDlt49HI+XVlR/8Ap1Ns8IYGtHwLySqduO29mkfrKxHDo72czrZdZPvtWXE+T42/RiinjeftWvv+aSOHY+8y+G01vZqe5/8AM3/0Xn9a1H5V/afmy/p2LzZR0V6g+41bXf7+E8fmxZxxvN3rX3/NhPDadpl0MuGsqX7i+U8o7poMZ+Mbhj5KenHP8qftKO3Df8bO+m15d6L9vaeJb2yUz+KB4mM4f8gVfw8U0+TpvtPn/NlXJo8tO2/ot1jvtsv8fEtNW2RvQ4yHNPuvaebT4ELYRO/WFVJICAgICAgICAgICAgICAgICAgICAgICAgIMXnAOO5B5LoWJslHHM8ZlnHElkPN73OJyXH6DoFxPFMmS+otv1iOkeTeaWkVxxMd0/tWu5lrd82rLmN3zavd3u75tXu5uxLV7u93fC1e7vd3zGF7uI63baK70jqQbTOJo5cchIGs3N3DtIPQrouC3v8AWpM9Gr4ljiOW3d6qt81QgICAgICAgICAgICAgICAgICAgICAgICDGTofIoPJdBSFlvpsfux9SuJ1uWaaq/q6DT13w1WmKamf98w//eSwrm01/vK/z9C1Lx9mXXHTW6X/AFGPj/dWaabQZPDJt+vzQWyZ6+zu2utFIfYrR+Sn/pGnnrXN8EcavJ3p8XPJbYWf6sfl/dYTwrHH+58PmlrqbT7LmlhpY/aqR8wo50GKvjf4Jq5Lz7Linq6GL/Oz5c15/p8Meaatck9kVV3hg+4iJ8+SzjFXssUwz3lGWOplqbvQmV3bPy7B+rW44bSKzbZr+MVitKbeb2lbZoRAQEBAQEBAQEBAQEBAQEBAQEBAQEBAQEGMnQ+RQeRaF/Z1N/LH1K4TiP4rJ6uh0v3NVgaqKZsCxYjwMdF7WI3IccoHcrNYhJDilVmqSEPdrlTW8DjvO53JrGjc9x7mtHMq7ptPkz25ccbsM2px4K82SdocbKDUFaC9zooAfZjc3iOx3vIIwfALqMPAaRT+5b63k5vN/wDS5Iv/AGqxy+fdhbf0zaK2nqay3NlZCX54LhuO9u3k15H1UuLhN8MzNZ3RanjtNVWtb15Zh6XSekrTcpxWVElO7umjcwfixt/NZWxXr4xKKmal/szErPRXCirxuoquN472uDvoVGkdKAgICAgICAgICAgICAgICAgICAgICAgxk6HyKDyLQv7Ppv5Y+pXCcR/FZPV0Ol+5qsDVRTNjVixH9F7UhxVDmsBL3AAcyTyA81apG7OFfjqq+/uLNNwgsHJ1S8Hgt/l/vXeXLxXSaDguTJtfN9Wv5d5arV8Xpi+ri+tb3Qm7TpaktJLyXSzH2ppObz4N7GN8AuswYseGvLjjaHMZ8uTNbmyTvLrmg8FZiytNXFLCpIsitVw1EAdyc0HzGQpIshtREyWWgBzFBw3e9E50TvPLCFjbDjv41hlXU5sfhaUz6O7veH3M0rblNNAyFzniUh5YQWhuH4z1OMEnoe5a3WYMeLbl8ZbjQ58maszd60qS8ICAgICAgICAgICAgICAgICAgICAgxk6HyKDyLQv7Ppv5Y+pXCcR/FZPV0Ol+5qsDVRTNjVixH9F7UhR9WfaRUsNfRSzUbQ0mNh5FwJ3cUDm4dMDmPBddwDJoccTObpftP5NPxamsvERg+z3jvKz2XXWnaoCOGThbRjYW4DfDA6fJdhXH9JHNjtFnM2yfR9MlZr+ixxSU9YM00zXD/pIKwmLV8YZxatvCWiaDwWUWeTVwzQ+CkiyOauKaDwUkWRWqjLm5lHE+SToxpP9h81LWeqK1N+iU9CMFF9mknFTG6eoeXvaHAuY1hLWNcOo7T/uWl1GX6TJNm/wYoxY4rD0pQphAQEBAQEBAQEBAQEBAQEBAQEBAQEGMnQ+RQeRaF/Z1N/LH1K4TiP4rJ6uh0v3NVgaqKZsasWI/ovakIW83WktoAncS9/JkbRukee5rRzPn0Wz0mky6m3Ljjf/AIYZtRjwV5sk7OKm0VPqFzZtSwNiYDuZA3HEPdxpB/SPmu00HDa6WN7Tvb3Q5rW8QtqOlY2r75+Sw1OnKDrBCYyOQdGSwjHl1W7rnv36+rTW09J7bejQBe6H7mqbM33ZBtd8HD+yy/t28Y29GMRkp4Tv6shfadvK508kJ73Dcz8bchefRT7M7soyR7UbOxsTalu6lc17feYQ4fko+badp6M+SZjeFe1C3dLHCB7AE0nmfu2n4Zd8lZwTvE2/SFfUfVjbu5/RjRG53aapgYGx08ZjJAA3ukxyOOuACfi1UuIXjmikeMeLYcNpaMfNPd7Gtc2IgICAgICAgICAgICAgICAgICAgICD4Rnqg8nmtF60Z+rhoX1NI0nhmPnNE0nO0tP3gHfnK0ev4P8AT2nJjna0+MT4Sv6fWzjjltHRlRaostUdv25rH+5JmN/yfhc/m4fqcX2qT+nVsaanFfwlNRSMk5xvB8iD9FRmJjxSbxLN4OOiVIVO92SvdUCqs9YGShrW4c3I9XOMHq3qV0vCeMzoqTjmsTWWu4hwuurmLc0xMeDSdeXuyFrdQW5rtx2tcw5Lj4Acyfgur0nEdLq52rExP7tBqeH6rTRvMxaPPot0epqPA/SFPNCTg+u07efiFsf9Pb2ZiWvjU19uJh3sdT1Y3UszXDvaQVHMWr0mEkWreN6zu5poO8LOLMZqh5rTA12+mDo3+9G4sPx29VLF942nrHmj25Z3joirnDJQQyObK+SWV20Oecuc5wwMnuAUtJ3mIiOkI7xv9a0pT0RXilt4FuqaGSOodxJnPJa5kpzkkEHIw3AAI7FqNRiyVtzX7t1psuO9dsfZ6iqywICAgICAgICAgICAgICAgICAgICAgIPhAPUII642C1XMYrqGN+feaD9UFcn9F+l3nMFG6M/wnvj/AKHAfksLY62+1ES9i0x4S0H0Y0DfuLtXN/7hx/qyoZ0eCfGkfszjNeO8qXqqyRUFSKK2XisM7mtc58s+2KIPJwT6uXnkeQ+JCmw8LxZN+WkdEOfiNsO3Naevh/72WzTOkLfZwJHSuqJyMGeQ7j5M7GDyV/HiphjlpGyjky3zTzXnf4JqeAPGHDI8ealiyKaoOpsNLndTB0TvejO35jofkrFc1ttp6+qvbDXfeOktYlvNH1fHO3ud+rk/EPVPyC92x28iJvXzZNvNvfyrd9O7+K31P+RmR88LGcd48Ovp8mcWpbvt6/NEXWeCumzTStdFTtIDgctc9wy9wPaAMDPmp8MTEdfGfgr6nb7Nezo9D9sdcKiouNQOXOCHyBBkcPiGt+Du9a3XZefJyx4R0bXQYfo8Ub+M9Xq6pLogICAgICAgICAgICAgICAgICAgICAgICAgIIPUOk7LqLBudG1zwMNeOT2jwcOa9iZjrDyaxaNphUKj0dXe2HdpnUEg/hy5cPLcMH55VqusyR0ttaPNTvoMU9ab1ny+SPmv2rrDyvtic9g/zIxvHzZzHxapq5sF/Hes/vCvbT6in2Zi0ftLutmtrHdOXH2O6EO7D3Z7FNGKZjekxaPJDOXadslZr6pgsZKMxOBHeDkLHeY6Sy6T4OSeAHqFnFmE1VXWJdRwNhoIwJal4ijaBj2iATgdmT9VlbLy1m/5fF7iw894j+bPVtM2eGwUkNNB0jYGk+8ernHxLiT8VpZndu0ogICAgICAgICAgICAgICAgICAgICAgICAgICAgIPhAPUIIC96L09e+dfbYy732ja8eTm4K9iZid4eTETG0qlVejS5207tLagkZj/BL67fLI5/PPkrNdXkjpbrHn81a2jxz1r0nycEt31VY+Wo9O8Zo6ywHPxw0f8AipYz47fnX3x80U6a8flPun5NmiYn6vuZrZqR7IKVgZC1wPtuBGeYGSBkk97vBR6nJG0UrO/eZ8/+kunxzG9pjbtEeT1hVFoQEBAQEBAQEBAQEBAQEBAQEBAQEBAQEBAQEBAQEBAQEHwgHqEHxjGs9hoHkgyQEBAQEBAQEBAQEBAQEBAQEBAQEBAQEBAQEBAQEBAQEBAQEBAQEBAQEBAQEBAQEBAQEBAQEGE0scDS6Z4a1oJJJwAB1JPYEFVptYVd3y7Ten5p4gcCZ72wRvx2x7suc3x2gIOm3aonknbT3ex1NPI/Ox2BLC/aMkCSP2Tj3g1BZEBAQEBAQQFtv0tZcaujdA0Np2QPDsnLuM0kgjsxhBPoCAgICCBt1+lq7jVUboGhtPHA8Oycu4wJII7MYQTyAgICAgICAgICAgICAgICAgICCi+lAPuBoaEvIjq6kNlwcFzIml5ZnsBOPkguzWxUzcNAa1o5DoGho/IYQQ1NrPTFU9rKa/0jnvcGtaJWEuLjgADPMk8kDU2pI7Hw44aV89RO4thgZgOftGXOJcQGsA6uKCNq9UXix7ZNT2WKOBzmtdNDPxREXkNbxWuYwhuSBkZ6oJfUuoaTT0IkqGue57mxxRs5vle/2WMHee9BET3/AFXRx8as0swxjLnMjqQ+oaO/YWBjj4B58MoJuk1BbKukFZFUjgcMy7zyw0DJyOwjB5eCCEodR6jvDOPZ9OR8Bw3Rmao4csrT0c1jWODQRzG5w6oInQly/St4uT3UskThFSNfG8DcxzWvBBwSCO4jkQQgstwumoTM6O0WBjmMxmWacRMfkA4jDGvce7JAQa7JqOrun2iGS2iKsptu6J78xu4jSY3Nla05jODz25GDkdiCp6On1GLlcuFbaMuM0PFzUPAZ+qb92eD6/Lnz28/mgud3ud8jmEVmsYkG0OdNLMIoRkkbRtDnudy91BqsOo6irqJKS827gVDGCUBr+JHIwu27434B5HAIIBGQgqv6Xmt1+rmUFvfPNLBS7GAhrQGA7nyPdyY0bh3k55AoJyr1XdrE5h1TZmRwPc1nHgmMzIy44HFDmMc0ZwNwBCCwXquqaGLfb7c+oeSA2Njmtzu7S55ADe8oIGo1NerMY36kssUcD3sjMkM5l4RkO1vEa6Nvq7iBkZ6oJHU+oH2cwRUdEZp6l5ZEzcGN9Vpe5z3n2WhozyBPcCgwtV2vjqjgXqxCMFpc2aKXiw8sZa4ua1zXc/dwUGi4aoqn1TqTTls+0Sxhpme6QRQQ7hkNe/BJeR/ha09R44DK16lqvtIpNQW4QTPa58RbJxYpgz2tjsNIcAQS0tB5oLKgICAgICAgICAgICCpekWy11zhimsozU0craiNv7zaCHRZ7Mg/kEEhp3Vlov7M09SGSAfrIJCGTRHta9h5jz6FBU/SJXUFXWWqGgqI3ysr4ZHsjIc5rQcFzg3m1vPqUGeu6d1Hc6SqqrpLTQGKSnM7OHiJ7nBzd5la5rWuwRuwOg5oMtUUFvEHCvWuK17KjbGI2ime+XeQPUayDcR25HTCDbrundaZrXVyb309FI9kxxktbLG2NszwOxpGScctyC0V2prJQwfaJ7nDwsZDmva7f3BmD6xPYAgoFHpy6VWmZoI6Yslm4k7IuYLQ6YTCPHLBLRjHL2kF405qWz3OlbJT1kbQxgEjXODXQlow5kjSfUI8UFd0XeKK93i4yW4ZYIqVgfjAk28T1x3t54B7Q0IOa1Tz6qqa0XnUM9OKaokiZTQy/ZyGMxtmkcMPcHdhyG8u1B99HzqN11r/ANG1M8sXBpg2WWV83EwZcuZI8kujzkAg49U4QdmkqiClut2bUzNYTLA4BxDSWmFo3DPZntQaJKiq1Dc6uluF+mpYqfhcOGJ4hfMHt3OkMntloPL1SPFByabFAy/7bZW1EzG0UjTJLNJOC4TR7mxveTnHIOAOAT3oN9Ne6C06hrW3GQMEsFK1sjuTAQDhjnHk0nPLPXagkPSldKOWhkpKeRslRVARQwtIc9xc4ettGSGgesXdOSDXrG4XGyQ0FPFcRA2V7IZqogHhhkfYXeq1ziMBx6IK56R6C12qkDG32unnfJAQx9XJK3aJoy6SSIHYGcupaBlzcc8ILrrNmm6v7PBqKo4b3uJgkDnRua9oHsSjGx3Mcs8/FBDWye4WG5wUcGoX1kM0cjnRylr5oAwAtkMjeZaScet3II+0UL6G410FbqSopJJpzPCG8ANnY9g5sM0bi5zSCC0Hljp1QSkdvttRcadlRqqrqainL5msxA5sfq7CJTFCNmQeQJGcIL8gICAgICAgICAgICAgjbnp+y3Yg3S008pHQyRNefm4INlts9stQxbLdDEO6ONrP6Qg65oo52ls0Yc08iCMg+YKCNt2m7Fa3b7bZqaJ3vMiY0/MBBKOa14w4Ag9QUETBpfT9PJxaeyUrZM53iFgdk9uQM5QS6CJrNMWCuk4tbZaV8nvuiY53LxIyg7Ke3UVM90lNSRte8Na5zWgOcGDDQSOoA6DsQc1x09ZLo8PuVpp5XjkHPiY9w+JCDqhoKOB++Clja8tazcGgHa3Ja3I/wAIycDxQc9dYrRcZGy19rgkkZja98bXObg5GCRkc0C6WK0Xgg3W1wTFvQyRtfjy3Dkg3Q2ygp3MdBRRNdG0xsIYAWtJBLWkDk3IBx4IMZrRbZ3SOmoIXOlDWyEsaS8N9kPyPWA7MoNNs0/ZbQ4utdpp4nHkTHE1hPmWhB21dLT1rCysgY9juRa5oc0+YPIoI+HTFggjfFBZaVscmN7BEwNfggjcAMHmAfgEHdXUNJcGGOvpY5GHq17Q5p+B5INFrstqs+f0VbYId3XhxtZnz2jmg2XK2W+6t2XOiilb12yMDx8nBBjbLTbrS0ttdBDE08yI2NYD+EIO1AQEBAQEBAQEBAQEBAQEBAQEBAQEBAQEBAQEBAQEBAQEBAQEBAQEBAQEBAQEBAQEBAQEBAQEBAQEBAQEBAQEBAQEBAQEBAQEBAQEBAQEBAQEBAQEBAQEBAQEBAQEBAQEBAQEBAQEBAQEBAQEBAQEBB//2Q==;" vertex="1" parent="1">
          <mxGeometry x="197" y="307" width="247.2" height="166" as="geometry" />
        </mxCell>
        <mxCell id="Otv1H664hoKUmCndlfrk-6" value="" style="shape=image;verticalLabelPosition=bottom;labelBackgroundColor=default;verticalAlign=top;aspect=fixed;imageAspect=0;image=data:image/jpeg,/9j/4AAQSkZJRgABAQAAAQABAAD/2wCEAAkGBwgHERUTBwgRFhUVFxYWGBcYFhoXFxchFRcZGBsYFxoZHioiGRoxHBsZJDEhMSkrLi86Fx8/ODMtNyotLisBCgoKDg0OGxAQGysmHSU3LS0vKzArLS82LS0tLS0tNy8vLy0rLS4tLS0tLy0tLS0vLS0tNS03LS0tLS0tLS0tLf/AABEIALgBEgMBEQACEQEDEQH/xAAbAAEAAgMBAQAAAAAAAAAAAAAABQYCAwQHAf/EAEEQAAEDAwIDBAcECAUFAQAAAAEAAgMEBREGEhMhMUFRYXEHIjJSgZGxFDOSoRUjNVNjc7LRQkNEgpNihMLS8DT/xAAaAQEAAgMBAAAAAAAAAAAAAAAAAwQCBQYB/8QANhEBAAIBAgQDBAkDBQEAAAAAAAECAwQRBRIhQTFhcUKhsdETIjIzNFGBkfAVI1IUQ8Hh8Qb/2gAMAwEAAhEDEQA/APcUBAQEBAQEBAQEBAQEBAQEBAQEBAQEBAQEBAQEBAQEBAQEBAQEBAQEBAQEBAQEBAQEBAQEBAQEBAQEBAQEBAQEBAQEBAQEBAQEBAQEBAQEBAQEBAQEBAQEBAQEBAQEBAQEBAQEBAQEBAQEBAQEBAQEBAQEBBXtQaytFifwppXSTkZEETTJJ5kD2R4nCwyZKY45rztDKtZtO0Qrk+rdWV37Ps9PTt7HTv4j/wAERwPxLV5eNaevSu9v55rdNDlt49HI+XVlR/8Ap1Ns8IYGtHwLySqduO29mkfrKxHDo72czrZdZPvtWXE+T42/RiinjeftWvv+aSOHY+8y+G01vZqe5/8AM3/0Xn9a1H5V/afmy/p2LzZR0V6g+41bXf7+E8fmxZxxvN3rX3/NhPDadpl0MuGsqX7i+U8o7poMZ+Mbhj5KenHP8qftKO3Df8bO+m15d6L9vaeJb2yUz+KB4mM4f8gVfw8U0+TpvtPn/NlXJo8tO2/ot1jvtsv8fEtNW2RvQ4yHNPuvaebT4ELYRO/WFVJICAgICAgICAgICAgICAgICAgICAgICAgIMXnAOO5B5LoWJslHHM8ZlnHElkPN73OJyXH6DoFxPFMmS+otv1iOkeTeaWkVxxMd0/tWu5lrd82rLmN3zavd3u75tXu5uxLV7u93fC1e7vd3zGF7uI63baK70jqQbTOJo5cchIGs3N3DtIPQrouC3v8AWpM9Gr4ljiOW3d6qt81QgICAgICAgICAgICAgICAgICAgICAgICDGTofIoPJdBSFlvpsfux9SuJ1uWaaq/q6DT13w1WmKamf98w//eSwrm01/vK/z9C1Lx9mXXHTW6X/AFGPj/dWaabQZPDJt+vzQWyZ6+zu2utFIfYrR+Sn/pGnnrXN8EcavJ3p8XPJbYWf6sfl/dYTwrHH+58PmlrqbT7LmlhpY/aqR8wo50GKvjf4Jq5Lz7Linq6GL/Oz5c15/p8Meaatck9kVV3hg+4iJ8+SzjFXssUwz3lGWOplqbvQmV3bPy7B+rW44bSKzbZr+MVitKbeb2lbZoRAQEBAQEBAQEBAQEBAQEBAQEBAQEBAQEGMnQ+RQeRaF/Z1N/LH1K4TiP4rJ6uh0v3NVgaqKZsCxYjwMdF7WI3IccoHcrNYhJDilVmqSEPdrlTW8DjvO53JrGjc9x7mtHMq7ptPkz25ccbsM2px4K82SdocbKDUFaC9zooAfZjc3iOx3vIIwfALqMPAaRT+5b63k5vN/wDS5Iv/AGqxy+fdhbf0zaK2nqay3NlZCX54LhuO9u3k15H1UuLhN8MzNZ3RanjtNVWtb15Zh6XSekrTcpxWVElO7umjcwfixt/NZWxXr4xKKmal/szErPRXCirxuoquN472uDvoVGkdKAgICAgICAgICAgICAgICAgICAgICAgxk6HyKDyLQv7Ppv5Y+pXCcR/FZPV0Ol+5qsDVRTNjVixH9F7UhxVDmsBL3AAcyTyA81apG7OFfjqq+/uLNNwgsHJ1S8Hgt/l/vXeXLxXSaDguTJtfN9Wv5d5arV8Xpi+ri+tb3Qm7TpaktJLyXSzH2ppObz4N7GN8AuswYseGvLjjaHMZ8uTNbmyTvLrmg8FZiytNXFLCpIsitVw1EAdyc0HzGQpIshtREyWWgBzFBw3e9E50TvPLCFjbDjv41hlXU5sfhaUz6O7veH3M0rblNNAyFzniUh5YQWhuH4z1OMEnoe5a3WYMeLbl8ZbjQ58maszd60qS8ICAgICAgICAgICAgICAgICAgICAgxk6HyKDyLQv7Ppv5Y+pXCcR/FZPV0Ol+5qsDVRTNjVixH9F7UhR9WfaRUsNfRSzUbQ0mNh5FwJ3cUDm4dMDmPBddwDJoccTObpftP5NPxamsvERg+z3jvKz2XXWnaoCOGThbRjYW4DfDA6fJdhXH9JHNjtFnM2yfR9MlZr+ixxSU9YM00zXD/pIKwmLV8YZxatvCWiaDwWUWeTVwzQ+CkiyOauKaDwUkWRWqjLm5lHE+SToxpP9h81LWeqK1N+iU9CMFF9mknFTG6eoeXvaHAuY1hLWNcOo7T/uWl1GX6TJNm/wYoxY4rD0pQphAQEBAQEBAQEBAQEBAQEBAQEBAQEGMnQ+RQeRaF/Z1N/LH1K4TiP4rJ6uh0v3NVgaqKZsasWI/ovakIW83WktoAncS9/JkbRukee5rRzPn0Wz0mky6m3Ljjf/AIYZtRjwV5sk7OKm0VPqFzZtSwNiYDuZA3HEPdxpB/SPmu00HDa6WN7Tvb3Q5rW8QtqOlY2r75+Sw1OnKDrBCYyOQdGSwjHl1W7rnv36+rTW09J7bejQBe6H7mqbM33ZBtd8HD+yy/t28Y29GMRkp4Tv6shfadvK508kJ73Dcz8bchefRT7M7soyR7UbOxsTalu6lc17feYQ4fko+badp6M+SZjeFe1C3dLHCB7AE0nmfu2n4Zd8lZwTvE2/SFfUfVjbu5/RjRG53aapgYGx08ZjJAA3ukxyOOuACfi1UuIXjmikeMeLYcNpaMfNPd7Gtc2IgICAgICAgICAgICAgICAgICAgICD4Rnqg8nmtF60Z+rhoX1NI0nhmPnNE0nO0tP3gHfnK0ev4P8AT2nJjna0+MT4Sv6fWzjjltHRlRaostUdv25rH+5JmN/yfhc/m4fqcX2qT+nVsaanFfwlNRSMk5xvB8iD9FRmJjxSbxLN4OOiVIVO92SvdUCqs9YGShrW4c3I9XOMHq3qV0vCeMzoqTjmsTWWu4hwuurmLc0xMeDSdeXuyFrdQW5rtx2tcw5Lj4Acyfgur0nEdLq52rExP7tBqeH6rTRvMxaPPot0epqPA/SFPNCTg+u07efiFsf9Pb2ZiWvjU19uJh3sdT1Y3UszXDvaQVHMWr0mEkWreN6zu5poO8LOLMZqh5rTA12+mDo3+9G4sPx29VLF942nrHmj25Z3joirnDJQQyObK+SWV20Oecuc5wwMnuAUtJ3mIiOkI7xv9a0pT0RXilt4FuqaGSOodxJnPJa5kpzkkEHIw3AAI7FqNRiyVtzX7t1psuO9dsfZ6iqywICAgICAgICAgICAgICAgICAgICAgIPhAPUII642C1XMYrqGN+feaD9UFcn9F+l3nMFG6M/wnvj/AKHAfksLY62+1ES9i0x4S0H0Y0DfuLtXN/7hx/qyoZ0eCfGkfszjNeO8qXqqyRUFSKK2XisM7mtc58s+2KIPJwT6uXnkeQ+JCmw8LxZN+WkdEOfiNsO3Naevh/72WzTOkLfZwJHSuqJyMGeQ7j5M7GDyV/HiphjlpGyjky3zTzXnf4JqeAPGHDI8ealiyKaoOpsNLndTB0TvejO35jofkrFc1ttp6+qvbDXfeOktYlvNH1fHO3ud+rk/EPVPyC92x28iJvXzZNvNvfyrd9O7+K31P+RmR88LGcd48Ovp8mcWpbvt6/NEXWeCumzTStdFTtIDgctc9wy9wPaAMDPmp8MTEdfGfgr6nb7Nezo9D9sdcKiouNQOXOCHyBBkcPiGt+Du9a3XZefJyx4R0bXQYfo8Ub+M9Xq6pLogICAgICAgICAgICAgICAgICAgICAgICAgIIPUOk7LqLBudG1zwMNeOT2jwcOa9iZjrDyaxaNphUKj0dXe2HdpnUEg/hy5cPLcMH55VqusyR0ttaPNTvoMU9ab1ny+SPmv2rrDyvtic9g/zIxvHzZzHxapq5sF/Hes/vCvbT6in2Zi0ftLutmtrHdOXH2O6EO7D3Z7FNGKZjekxaPJDOXadslZr6pgsZKMxOBHeDkLHeY6Sy6T4OSeAHqFnFmE1VXWJdRwNhoIwJal4ijaBj2iATgdmT9VlbLy1m/5fF7iw894j+bPVtM2eGwUkNNB0jYGk+8ernHxLiT8VpZndu0ogICAgICAgICAgICAgICAgICAgICAgICAgICAgIPhAPUIIC96L09e+dfbYy732ja8eTm4K9iZid4eTETG0qlVejS5207tLagkZj/BL67fLI5/PPkrNdXkjpbrHn81a2jxz1r0nycEt31VY+Wo9O8Zo6ywHPxw0f8AipYz47fnX3x80U6a8flPun5NmiYn6vuZrZqR7IKVgZC1wPtuBGeYGSBkk97vBR6nJG0UrO/eZ8/+kunxzG9pjbtEeT1hVFoQEBAQEBAQEBAQEBAQEBAQEBAQEBAQEBAQEBAQEBAQEHwgHqEHxjGs9hoHkgyQEBAQEBAQEBAQEBAQEBAQEBAQEBAQEBAQEBAQEBAQEBAQEBAQEBAQEBAQEBAQEBAQEBAQEGE0scDS6Z4a1oJJJwAB1JPYEFVptYVd3y7Ten5p4gcCZ72wRvx2x7suc3x2gIOm3aonknbT3ex1NPI/Ox2BLC/aMkCSP2Tj3g1BZEBAQEBAQQFtv0tZcaujdA0Np2QPDsnLuM0kgjsxhBPoCAgICCBt1+lq7jVUboGhtPHA8Oycu4wJII7MYQTyAgICAgICAgICAgICAgICAgICCi+lAPuBoaEvIjq6kNlwcFzIml5ZnsBOPkguzWxUzcNAa1o5DoGho/IYQQ1NrPTFU9rKa/0jnvcGtaJWEuLjgADPMk8kDU2pI7Hw44aV89RO4thgZgOftGXOJcQGsA6uKCNq9UXix7ZNT2WKOBzmtdNDPxREXkNbxWuYwhuSBkZ6oJfUuoaTT0IkqGue57mxxRs5vle/2WMHee9BET3/AFXRx8as0swxjLnMjqQ+oaO/YWBjj4B58MoJuk1BbKukFZFUjgcMy7zyw0DJyOwjB5eCCEodR6jvDOPZ9OR8Bw3Rmao4csrT0c1jWODQRzG5w6oInQly/St4uT3UskThFSNfG8DcxzWvBBwSCO4jkQQgstwumoTM6O0WBjmMxmWacRMfkA4jDGvce7JAQa7JqOrun2iGS2iKsptu6J78xu4jSY3Nla05jODz25GDkdiCp6On1GLlcuFbaMuM0PFzUPAZ+qb92eD6/Lnz28/mgud3ud8jmEVmsYkG0OdNLMIoRkkbRtDnudy91BqsOo6irqJKS827gVDGCUBr+JHIwu27434B5HAIIBGQgqv6Xmt1+rmUFvfPNLBS7GAhrQGA7nyPdyY0bh3k55AoJyr1XdrE5h1TZmRwPc1nHgmMzIy44HFDmMc0ZwNwBCCwXquqaGLfb7c+oeSA2Njmtzu7S55ADe8oIGo1NerMY36kssUcD3sjMkM5l4RkO1vEa6Nvq7iBkZ6oJHU+oH2cwRUdEZp6l5ZEzcGN9Vpe5z3n2WhozyBPcCgwtV2vjqjgXqxCMFpc2aKXiw8sZa4ua1zXc/dwUGi4aoqn1TqTTls+0Sxhpme6QRQQ7hkNe/BJeR/ha09R44DK16lqvtIpNQW4QTPa58RbJxYpgz2tjsNIcAQS0tB5oLKgICAgICAgICAgICCpekWy11zhimsozU0craiNv7zaCHRZ7Mg/kEEhp3Vlov7M09SGSAfrIJCGTRHta9h5jz6FBU/SJXUFXWWqGgqI3ysr4ZHsjIc5rQcFzg3m1vPqUGeu6d1Hc6SqqrpLTQGKSnM7OHiJ7nBzd5la5rWuwRuwOg5oMtUUFvEHCvWuK17KjbGI2ime+XeQPUayDcR25HTCDbrundaZrXVyb309FI9kxxktbLG2NszwOxpGScctyC0V2prJQwfaJ7nDwsZDmva7f3BmD6xPYAgoFHpy6VWmZoI6Yslm4k7IuYLQ6YTCPHLBLRjHL2kF405qWz3OlbJT1kbQxgEjXODXQlow5kjSfUI8UFd0XeKK93i4yW4ZYIqVgfjAk28T1x3t54B7Q0IOa1Tz6qqa0XnUM9OKaokiZTQy/ZyGMxtmkcMPcHdhyG8u1B99HzqN11r/ANG1M8sXBpg2WWV83EwZcuZI8kujzkAg49U4QdmkqiClut2bUzNYTLA4BxDSWmFo3DPZntQaJKiq1Dc6uluF+mpYqfhcOGJ4hfMHt3OkMntloPL1SPFByabFAy/7bZW1EzG0UjTJLNJOC4TR7mxveTnHIOAOAT3oN9Ne6C06hrW3GQMEsFK1sjuTAQDhjnHk0nPLPXagkPSldKOWhkpKeRslRVARQwtIc9xc4ettGSGgesXdOSDXrG4XGyQ0FPFcRA2V7IZqogHhhkfYXeq1ziMBx6IK56R6C12qkDG32unnfJAQx9XJK3aJoy6SSIHYGcupaBlzcc8ILrrNmm6v7PBqKo4b3uJgkDnRua9oHsSjGx3Mcs8/FBDWye4WG5wUcGoX1kM0cjnRylr5oAwAtkMjeZaScet3II+0UL6G410FbqSopJJpzPCG8ANnY9g5sM0bi5zSCC0Hljp1QSkdvttRcadlRqqrqainL5msxA5sfq7CJTFCNmQeQJGcIL8gICAgICAgICAgICAgjbnp+y3Yg3S008pHQyRNefm4INlts9stQxbLdDEO6ONrP6Qg65oo52ls0Yc08iCMg+YKCNt2m7Fa3b7bZqaJ3vMiY0/MBBKOa14w4Ag9QUETBpfT9PJxaeyUrZM53iFgdk9uQM5QS6CJrNMWCuk4tbZaV8nvuiY53LxIyg7Ke3UVM90lNSRte8Na5zWgOcGDDQSOoA6DsQc1x09ZLo8PuVpp5XjkHPiY9w+JCDqhoKOB++Clja8tazcGgHa3Ja3I/wAIycDxQc9dYrRcZGy19rgkkZja98bXObg5GCRkc0C6WK0Xgg3W1wTFvQyRtfjy3Dkg3Q2ygp3MdBRRNdG0xsIYAWtJBLWkDk3IBx4IMZrRbZ3SOmoIXOlDWyEsaS8N9kPyPWA7MoNNs0/ZbQ4utdpp4nHkTHE1hPmWhB21dLT1rCysgY9juRa5oc0+YPIoI+HTFggjfFBZaVscmN7BEwNfggjcAMHmAfgEHdXUNJcGGOvpY5GHq17Q5p+B5INFrstqs+f0VbYId3XhxtZnz2jmg2XK2W+6t2XOiilb12yMDx8nBBjbLTbrS0ttdBDE08yI2NYD+EIO1AQEBAQEBAQEBAQEBAQEBAQEBAQEBAQEBAQEBAQEBAQEBAQEBAQEBAQEBAQEBAQEBAQEBAQEBAQEBAQEBAQEBAQEBAQEBAQEBAQEBAQEBAQEBAQEBAQEBAQEBAQEBAQEBAQEBAQEBAQEBAQEBAQEBB//2Q==;" vertex="1" parent="1">
          <mxGeometry x="481" y="304" width="247.2" height="166" as="geometry" />
        </mxCell>
      </root>
    </mxGraphModel>
  </diagram>
</mxfile>
